<mxfile host="www.draw.io" modified="2019-11-04T01:08:53.560Z" agent="Mozilla/5.0 (Windows NT 6.1; WOW64) AppleWebKit/537.36 (KHTML, like Gecko) Chrome/77.0.3865.120 Safari/537.36" etag="aWLI-nB1-FMIZX-3mM7x" version="12.1.8" type="github" pages="1">
  <diagram id="823flK1UpDiAErsN51Mf" name="Page-1">
    <mxGraphModel dx="768" dy="436" grid="0" gridSize="10" guides="1" tooltips="1" connect="1" arrows="1" fold="1" page="1" pageScale="1" pageWidth="827" pageHeight="1169" math="0" shadow="0">
      <root>
        <mxCell id="0"/>
        <mxCell id="1" parent="0"/>
        <mxCell id="e_EqWmwXSgaqKbhF4qUe-16" style="edgeStyle=orthogonalEdgeStyle;rounded=0;orthogonalLoop=1;jettySize=auto;html=1;exitX=0.5;exitY=1;exitDx=0;exitDy=0;entryX=0.5;entryY=0;entryDx=0;entryDy=0;" edge="1" parent="1" source="e_EqWmwXSgaqKbhF4qUe-1" target="e_EqWmwXSgaqKbhF4qUe-6">
          <mxGeometry relative="1" as="geometry"/>
        </mxCell>
        <mxCell id="e_EqWmwXSgaqKbhF4qUe-1" value="&lt;b&gt;&lt;font style=&quot;font-size: 14px&quot;&gt;kafka&lt;/font&gt;&lt;/b&gt;" style="rounded=1;whiteSpace=wrap;html=1;fillColor=#d5e8d4;strokeColor=#82b366;" vertex="1" parent="1">
          <mxGeometry x="111" y="112" width="120" height="40" as="geometry"/>
        </mxCell>
        <mxCell id="e_EqWmwXSgaqKbhF4qUe-2" value="" style="endArrow=none;dashed=1;html=1;" edge="1" parent="1">
          <mxGeometry width="50" height="50" relative="1" as="geometry">
            <mxPoint x="326" y="670" as="sourcePoint"/>
            <mxPoint x="326" y="90" as="targetPoint"/>
          </mxGeometry>
        </mxCell>
        <mxCell id="e_EqWmwXSgaqKbhF4qUe-3" value="&lt;b&gt;CRS补数&lt;/b&gt;" style="text;html=1;strokeColor=none;fillColor=none;align=center;verticalAlign=middle;whiteSpace=wrap;rounded=0;" vertex="1" parent="1">
          <mxGeometry x="136" y="82" width="70" height="20" as="geometry"/>
        </mxCell>
        <mxCell id="e_EqWmwXSgaqKbhF4qUe-17" style="edgeStyle=orthogonalEdgeStyle;rounded=0;orthogonalLoop=1;jettySize=auto;html=1;exitX=0.5;exitY=1;exitDx=0;exitDy=0;entryX=0.5;entryY=0;entryDx=0;entryDy=0;" edge="1" parent="1" source="e_EqWmwXSgaqKbhF4qUe-6" target="e_EqWmwXSgaqKbhF4qUe-8">
          <mxGeometry relative="1" as="geometry"/>
        </mxCell>
        <mxCell id="e_EqWmwXSgaqKbhF4qUe-6" value="&lt;b&gt;&lt;font style=&quot;font-size: 14px&quot;&gt;sparkstreaming&lt;/font&gt;&lt;/b&gt;" style="rounded=1;whiteSpace=wrap;html=1;fillColor=#ffe6cc;strokeColor=#d79b00;" vertex="1" parent="1">
          <mxGeometry x="111" y="179" width="120" height="40" as="geometry"/>
        </mxCell>
        <mxCell id="e_EqWmwXSgaqKbhF4qUe-44" style="edgeStyle=orthogonalEdgeStyle;rounded=0;orthogonalLoop=1;jettySize=auto;html=1;exitX=0.5;exitY=1;exitDx=0;exitDy=0;entryX=0.5;entryY=0;entryDx=0;entryDy=0;" edge="1" parent="1" source="e_EqWmwXSgaqKbhF4qUe-8" target="e_EqWmwXSgaqKbhF4qUe-43">
          <mxGeometry relative="1" as="geometry"/>
        </mxCell>
        <mxCell id="e_EqWmwXSgaqKbhF4qUe-8" value="&lt;b&gt;&lt;font style=&quot;font-size: 14px&quot;&gt;HDFS&lt;/font&gt;&lt;/b&gt;" style="rounded=1;whiteSpace=wrap;html=1;fillColor=#dae8fc;strokeColor=#6c8ebf;" vertex="1" parent="1">
          <mxGeometry x="111" y="242" width="120" height="40" as="geometry"/>
        </mxCell>
        <mxCell id="e_EqWmwXSgaqKbhF4qUe-19" style="edgeStyle=orthogonalEdgeStyle;rounded=0;orthogonalLoop=1;jettySize=auto;html=1;exitX=0.5;exitY=1;exitDx=0;exitDy=0;" edge="1" parent="1" source="e_EqWmwXSgaqKbhF4qUe-9" target="e_EqWmwXSgaqKbhF4qUe-12">
          <mxGeometry relative="1" as="geometry"/>
        </mxCell>
        <mxCell id="e_EqWmwXSgaqKbhF4qUe-9" value="" style="shape=dataStorage;whiteSpace=wrap;html=1;fillColor=#d0cee2;strokeColor=#56517e;" vertex="1" parent="1">
          <mxGeometry x="46" y="370" width="230" height="40" as="geometry"/>
        </mxCell>
        <mxCell id="e_EqWmwXSgaqKbhF4qUe-10" value="&lt;b&gt;&lt;span lang=&quot;EN-US&quot; style=&quot;font-size: 10.5pt ; font-family: &amp;#34;times new roman&amp;#34; , serif&quot;&gt;cdn.t_st_cdn_realcrs_h&lt;/span&gt;&lt;br&gt;&lt;/b&gt;" style="text;html=1;" vertex="1" parent="1">
          <mxGeometry x="86" y="377" width="170" height="20" as="geometry"/>
        </mxCell>
        <mxCell id="e_EqWmwXSgaqKbhF4qUe-20" style="edgeStyle=orthogonalEdgeStyle;rounded=0;orthogonalLoop=1;jettySize=auto;html=1;exitX=0.5;exitY=1;exitDx=0;exitDy=0;" edge="1" parent="1" source="e_EqWmwXSgaqKbhF4qUe-12" target="e_EqWmwXSgaqKbhF4qUe-15">
          <mxGeometry relative="1" as="geometry"/>
        </mxCell>
        <mxCell id="e_EqWmwXSgaqKbhF4qUe-12" value="&lt;span style=&quot;text-align: left&quot;&gt;cdn.t_st_cdn_realindex_min&amp;nbsp;&lt;/span&gt;&lt;br style=&quot;text-align: left&quot;&gt;&lt;br style=&quot;text-align: left&quot;&gt;&lt;span lang=&quot;EN-US&quot; style=&quot;text-align: left ; font-size: 10.5pt ; font-family: &amp;#34;times new roman&amp;#34; , serif&quot;&gt;cdn.t_st_cdn_realindex_h&lt;br&gt;&lt;/span&gt;&lt;br style=&quot;text-align: left&quot;&gt;&lt;span lang=&quot;EN-US&quot; style=&quot;text-align: left ; font-size: 10.5pt ; font-family: &amp;#34;times new roman&amp;#34; , serif&quot;&gt;cdn.t_st_cdn_realindex_d&lt;/span&gt;" style="shape=dataStorage;whiteSpace=wrap;html=1;fillColor=#008a00;strokeColor=#005700;fontColor=#ffffff;" vertex="1" parent="1">
          <mxGeometry x="212" y="458.5" width="230" height="90" as="geometry"/>
        </mxCell>
        <mxCell id="e_EqWmwXSgaqKbhF4qUe-13" value="" style="shape=cylinder;whiteSpace=wrap;html=1;boundedLbl=1;backgroundOutline=1;fillColor=#b1ddf0;strokeColor=#10739e;" vertex="1" parent="1">
          <mxGeometry x="257" y="663" width="140" height="80" as="geometry"/>
        </mxCell>
        <mxCell id="e_EqWmwXSgaqKbhF4qUe-14" value="&lt;font style=&quot;font-size: 14px&quot;&gt;&lt;b&gt;opentsdb&lt;/b&gt;&lt;/font&gt;" style="text;html=1;strokeColor=none;fillColor=none;align=center;verticalAlign=middle;whiteSpace=wrap;rounded=0;" vertex="1" parent="1">
          <mxGeometry x="307" y="753" width="40" height="20" as="geometry"/>
        </mxCell>
        <mxCell id="e_EqWmwXSgaqKbhF4qUe-33" style="edgeStyle=orthogonalEdgeStyle;rounded=0;orthogonalLoop=1;jettySize=auto;html=1;exitX=0.5;exitY=1;exitDx=0;exitDy=0;" edge="1" parent="1" source="e_EqWmwXSgaqKbhF4qUe-15" target="e_EqWmwXSgaqKbhF4qUe-13">
          <mxGeometry relative="1" as="geometry"/>
        </mxCell>
        <mxCell id="e_EqWmwXSgaqKbhF4qUe-15" value="&lt;b&gt;&lt;font style=&quot;font-size: 14px&quot;&gt;spark 补数&lt;/font&gt;&lt;/b&gt;" style="rounded=1;whiteSpace=wrap;html=1;fillColor=#1ba1e2;strokeColor=#006EAF;fontColor=#ffffff;" vertex="1" parent="1">
          <mxGeometry x="267" y="593" width="120" height="40" as="geometry"/>
        </mxCell>
        <mxCell id="e_EqWmwXSgaqKbhF4qUe-21" style="edgeStyle=orthogonalEdgeStyle;rounded=0;orthogonalLoop=1;jettySize=auto;html=1;exitX=0.5;exitY=1;exitDx=0;exitDy=0;entryX=0.5;entryY=0;entryDx=0;entryDy=0;" edge="1" parent="1" source="e_EqWmwXSgaqKbhF4qUe-22" target="e_EqWmwXSgaqKbhF4qUe-25">
          <mxGeometry relative="1" as="geometry"/>
        </mxCell>
        <mxCell id="e_EqWmwXSgaqKbhF4qUe-22" value="&lt;b&gt;&lt;font style=&quot;font-size: 14px&quot;&gt;边缘服务器&lt;/font&gt;&lt;/b&gt;" style="rounded=1;whiteSpace=wrap;html=1;fillColor=#d5e8d4;strokeColor=#82b366;" vertex="1" parent="1">
          <mxGeometry x="443" y="140" width="120" height="40" as="geometry"/>
        </mxCell>
        <mxCell id="e_EqWmwXSgaqKbhF4qUe-23" value="&lt;b&gt;杭研补数&lt;/b&gt;" style="text;html=1;strokeColor=none;fillColor=none;align=center;verticalAlign=middle;whiteSpace=wrap;rounded=0;" vertex="1" parent="1">
          <mxGeometry x="468" y="110" width="70" height="20" as="geometry"/>
        </mxCell>
        <mxCell id="e_EqWmwXSgaqKbhF4qUe-24" style="edgeStyle=orthogonalEdgeStyle;rounded=0;orthogonalLoop=1;jettySize=auto;html=1;exitX=0.5;exitY=1;exitDx=0;exitDy=0;entryX=0.5;entryY=0;entryDx=0;entryDy=0;" edge="1" parent="1" source="e_EqWmwXSgaqKbhF4qUe-25" target="e_EqWmwXSgaqKbhF4qUe-27">
          <mxGeometry relative="1" as="geometry"/>
        </mxCell>
        <mxCell id="e_EqWmwXSgaqKbhF4qUe-25" value="&lt;b&gt;&lt;font style=&quot;font-size: 14px&quot;&gt;FTP服务器&lt;/font&gt;&lt;/b&gt;" style="rounded=1;whiteSpace=wrap;html=1;fillColor=#ffe6cc;strokeColor=#d79b00;" vertex="1" parent="1">
          <mxGeometry x="443" y="220" width="120" height="40" as="geometry"/>
        </mxCell>
        <mxCell id="e_EqWmwXSgaqKbhF4qUe-41" style="edgeStyle=orthogonalEdgeStyle;rounded=0;orthogonalLoop=1;jettySize=auto;html=1;exitX=0.5;exitY=1;exitDx=0;exitDy=0;entryX=0.5;entryY=0;entryDx=0;entryDy=0;" edge="1" parent="1" source="e_EqWmwXSgaqKbhF4qUe-27" target="e_EqWmwXSgaqKbhF4qUe-35">
          <mxGeometry relative="1" as="geometry"/>
        </mxCell>
        <mxCell id="e_EqWmwXSgaqKbhF4qUe-27" value="&lt;b&gt;&lt;font style=&quot;font-size: 14px&quot;&gt;hive离线任务&lt;/font&gt;&lt;/b&gt;" style="rounded=1;whiteSpace=wrap;html=1;fillColor=#1ba1e2;strokeColor=#006EAF;fontColor=#ffffff;" vertex="1" parent="1">
          <mxGeometry x="443" y="297" width="120" height="40" as="geometry"/>
        </mxCell>
        <mxCell id="e_EqWmwXSgaqKbhF4qUe-36" style="edgeStyle=orthogonalEdgeStyle;rounded=0;orthogonalLoop=1;jettySize=auto;html=1;exitX=0.5;exitY=1;exitDx=0;exitDy=0;" edge="1" parent="1" source="e_EqWmwXSgaqKbhF4qUe-35">
          <mxGeometry relative="1" as="geometry">
            <mxPoint x="330" y="460" as="targetPoint"/>
          </mxGeometry>
        </mxCell>
        <mxCell id="e_EqWmwXSgaqKbhF4qUe-35" value="&lt;span lang=&quot;EN-US&quot; style=&quot;font-size: 10.5pt ; font-family: &amp;#34;times new roman&amp;#34; , serif&quot;&gt;&lt;b&gt;t_st_cdn_realsum_h&lt;/b&gt;&lt;/span&gt;" style="shape=dataStorage;whiteSpace=wrap;html=1;fillColor=#d0cee2;strokeColor=#56517e;" vertex="1" parent="1">
          <mxGeometry x="386" y="367" width="230" height="40" as="geometry"/>
        </mxCell>
        <mxCell id="e_EqWmwXSgaqKbhF4qUe-45" style="edgeStyle=orthogonalEdgeStyle;rounded=0;orthogonalLoop=1;jettySize=auto;html=1;exitX=0.5;exitY=1;exitDx=0;exitDy=0;" edge="1" parent="1" source="e_EqWmwXSgaqKbhF4qUe-43">
          <mxGeometry relative="1" as="geometry">
            <mxPoint x="171" y="370" as="targetPoint"/>
          </mxGeometry>
        </mxCell>
        <mxCell id="e_EqWmwXSgaqKbhF4qUe-43" value="&lt;span style=&quot;font-size: 14px&quot;&gt;&lt;b&gt;HIVE 离线任务&lt;/b&gt;&lt;/span&gt;" style="rounded=1;whiteSpace=wrap;html=1;fillColor=#1ba1e2;strokeColor=#006EAF;fontColor=#ffffff;" vertex="1" parent="1">
          <mxGeometry x="111" y="304" width="120" height="40" as="geometry"/>
        </mxCell>
      </root>
    </mxGraphModel>
  </diagram>
</mxfile>
